<?xml version="1.0"?>
<svg xmlns="http://www.w3.org/2000/svg" xmlns:xlink="http://www.w3.org/1999/xlink" version="1.1" id="Capa_1" x="0px" y="0px" viewBox="0 0 512 512" style="enable-background:new 0 0 512 512;" xml:space="preserve" width="512px" height="512px"><g><g>
	<g>
		<path d="M510.842,294.27l-50.026-86.282c-1.549-2.682-4.408-3.973-7.505-3.973h-92.26l-47.526-82.31    c-1.548-2.682-4.408-4.332-7.505-4.332H205.976c-3.097,0-5.957,1.65-7.505,4.332l-47.521,82.31H58.685    c-3.097,0-5.957,1.29-7.505,3.973L1.158,294.449c-1.544,2.682-1.544,5.892,0,8.574L51.18,389.98    c1.548,2.682,4.408,4.647,7.505,4.647h100.044c3.097,0,5.957-1.65,7.505-4.332l47.526-82.31h84.481l47.521,82.31    c1.548,2.682,4.408,4.332,7.505,4.332h100.044c3.097,0,5.957-2.009,7.505-4.692l50.026-86.821    C512.386,300.431,512.386,296.952,510.842,294.27z M153.729,377.298H63.685l-45.017-77.978l45.017-77.977h90.043l43.848,75.585    c-0.159,0.656-0.266,1.15-0.266,1.853s0.109,1.648,0.267,2.303L153.729,377.298z M298.241,290.658H213.76l-46.412-80.382    l43.628-75.573h90.043l43.632,75.57L298.241,290.658z M448.31,377.298h-90.043l-43.846-76.31c0.157-0.654,0.263-1.505,0.263-2.207    c0-0.701-0.106-1.104-0.263-1.758l43.846-75.68h90.043l45.021,77.977L448.31,377.298z" data-original="#000000" class="active-path" data-old_color="#000000" fill="#FC7845"/>
	</g>
</g></g> </svg>
